<mxfile host="app.diagrams.net" agent="Mozilla/5.0 (Macintosh; Intel Mac OS X 10_15_7) AppleWebKit/537.36 (KHTML, like Gecko) Chrome/135.0.0.0 Safari/537.36" version="26.2.8">
  <diagram name="Page-1" id="UfVrASz8z7SiAWhCFTRR">
    <mxGraphModel dx="2709" dy="2960" grid="1" gridSize="10" guides="1" tooltips="1" connect="1" arrows="1" fold="1" page="1" pageScale="1" pageWidth="850" pageHeight="1100" math="0" shadow="0">
      <root>
        <mxCell id="0" />
        <mxCell id="1" parent="0" />
        <mxCell id="PPMV_HGDCqkAZv2vb4dY-1" value="User" style="rounded=1;whiteSpace=wrap;html=1;" parent="1" vertex="1">
          <mxGeometry x="40" y="180" width="90" height="50" as="geometry" />
        </mxCell>
        <mxCell id="PPMV_HGDCqkAZv2vb4dY-2" value="&lt;b&gt;Subscription&lt;/b&gt;" style="rounded=1;whiteSpace=wrap;html=1;" parent="1" vertex="1">
          <mxGeometry x="700" y="175" width="120" height="60" as="geometry" />
        </mxCell>
        <mxCell id="PPMV_HGDCqkAZv2vb4dY-4" value="validity (days)" style="ellipse;whiteSpace=wrap;html=1;" parent="1" vertex="1">
          <mxGeometry x="680" y="75" width="80" height="40" as="geometry" />
        </mxCell>
        <mxCell id="PPMV_HGDCqkAZv2vb4dY-6" value="" style="endArrow=classic;html=1;rounded=0;exitX=0.5;exitY=0;exitDx=0;exitDy=0;" parent="1" source="PPMV_HGDCqkAZv2vb4dY-2" target="PPMV_HGDCqkAZv2vb4dY-7" edge="1">
          <mxGeometry width="50" height="50" relative="1" as="geometry">
            <mxPoint x="530" y="210" as="sourcePoint" />
            <mxPoint x="580" y="160" as="targetPoint" />
          </mxGeometry>
        </mxCell>
        <mxCell id="PPMV_HGDCqkAZv2vb4dY-7" value="Name" style="ellipse;whiteSpace=wrap;html=1;" parent="1" vertex="1">
          <mxGeometry x="750" y="65" width="135" height="20" as="geometry" />
        </mxCell>
        <mxCell id="PPMV_HGDCqkAZv2vb4dY-8" value="Price" style="ellipse;whiteSpace=wrap;html=1;" parent="1" vertex="1">
          <mxGeometry x="820" y="100" width="80" height="30" as="geometry" />
        </mxCell>
        <mxCell id="PPMV_HGDCqkAZv2vb4dY-9" value="" style="endArrow=classic;html=1;rounded=0;exitX=0.858;exitY=0.017;exitDx=0;exitDy=0;exitPerimeter=0;entryX=0.5;entryY=1;entryDx=0;entryDy=0;" parent="1" source="PPMV_HGDCqkAZv2vb4dY-2" target="PPMV_HGDCqkAZv2vb4dY-8" edge="1">
          <mxGeometry width="50" height="50" relative="1" as="geometry">
            <mxPoint x="680" y="200" as="sourcePoint" />
            <mxPoint x="580" y="120" as="targetPoint" />
          </mxGeometry>
        </mxCell>
        <mxCell id="PPMV_HGDCqkAZv2vb4dY-16" value="" style="endArrow=classic;html=1;rounded=0;exitX=0.189;exitY=0.04;exitDx=0;exitDy=0;exitPerimeter=0;entryX=0.5;entryY=1;entryDx=0;entryDy=0;" parent="1" source="PPMV_HGDCqkAZv2vb4dY-1" target="PPMV_HGDCqkAZv2vb4dY-19" edge="1">
          <mxGeometry width="50" height="50" relative="1" as="geometry">
            <mxPoint x="40" y="185" as="sourcePoint" />
            <mxPoint x="60" y="125" as="targetPoint" />
          </mxGeometry>
        </mxCell>
        <mxCell id="PPMV_HGDCqkAZv2vb4dY-17" value="" style="endArrow=classic;html=1;rounded=0;entryX=0.5;entryY=1;entryDx=0;entryDy=0;" parent="1" target="PPMV_HGDCqkAZv2vb4dY-20" edge="1">
          <mxGeometry width="50" height="50" relative="1" as="geometry">
            <mxPoint x="90" y="180" as="sourcePoint" />
            <mxPoint x="90" y="120" as="targetPoint" />
          </mxGeometry>
        </mxCell>
        <mxCell id="PPMV_HGDCqkAZv2vb4dY-18" value="" style="endArrow=classic;html=1;rounded=0;exitX=0.9;exitY=0.08;exitDx=0;exitDy=0;exitPerimeter=0;entryX=0.389;entryY=0.84;entryDx=0;entryDy=0;entryPerimeter=0;" parent="1" target="PPMV_HGDCqkAZv2vb4dY-21" edge="1">
          <mxGeometry width="50" height="50" relative="1" as="geometry">
            <mxPoint x="111" y="179" as="sourcePoint" />
            <mxPoint x="210" y="115" as="targetPoint" />
          </mxGeometry>
        </mxCell>
        <mxCell id="PPMV_HGDCqkAZv2vb4dY-19" value="email" style="ellipse;whiteSpace=wrap;html=1;" parent="1" vertex="1">
          <mxGeometry y="100" width="60" height="25" as="geometry" />
        </mxCell>
        <mxCell id="PPMV_HGDCqkAZv2vb4dY-20" value="phone" style="ellipse;whiteSpace=wrap;html=1;" parent="1" vertex="1">
          <mxGeometry x="70" y="90" width="50" height="25" as="geometry" />
        </mxCell>
        <mxCell id="PPMV_HGDCqkAZv2vb4dY-21" value="username" style="ellipse;whiteSpace=wrap;html=1;" parent="1" vertex="1">
          <mxGeometry x="130" y="85" width="90" height="25" as="geometry" />
        </mxCell>
        <mxCell id="PPMV_HGDCqkAZv2vb4dY-25" value="UserSubscription" style="rounded=1;whiteSpace=wrap;html=1;" parent="1" vertex="1">
          <mxGeometry x="360" y="160" width="160" height="55" as="geometry" />
        </mxCell>
        <mxCell id="PPMV_HGDCqkAZv2vb4dY-26" value="" style="endArrow=classic;html=1;rounded=0;exitX=0.056;exitY=0.036;exitDx=0;exitDy=0;exitPerimeter=0;entryX=0.5;entryY=1;entryDx=0;entryDy=0;" parent="1" source="PPMV_HGDCqkAZv2vb4dY-25" target="PPMV_HGDCqkAZv2vb4dY-29" edge="1">
          <mxGeometry width="50" height="50" relative="1" as="geometry">
            <mxPoint x="210" y="460" as="sourcePoint" />
            <mxPoint x="230" y="400" as="targetPoint" />
          </mxGeometry>
        </mxCell>
        <mxCell id="PPMV_HGDCqkAZv2vb4dY-28" value="" style="endArrow=classic;html=1;rounded=0;exitX=0.588;exitY=0.036;exitDx=0;exitDy=0;exitPerimeter=0;entryX=0.389;entryY=1.08;entryDx=0;entryDy=0;entryPerimeter=0;" parent="1" source="PPMV_HGDCqkAZv2vb4dY-25" target="PPMV_HGDCqkAZv2vb4dY-31" edge="1">
          <mxGeometry width="50" height="50" relative="1" as="geometry">
            <mxPoint x="281" y="454" as="sourcePoint" />
            <mxPoint x="380" y="390" as="targetPoint" />
          </mxGeometry>
        </mxCell>
        <mxCell id="PPMV_HGDCqkAZv2vb4dY-29" value="user_id(fk)" style="ellipse;whiteSpace=wrap;html=1;" parent="1" vertex="1">
          <mxGeometry x="315" y="60" width="110" height="25" as="geometry" />
        </mxCell>
        <mxCell id="PPMV_HGDCqkAZv2vb4dY-30" value="start_date" style="ellipse;whiteSpace=wrap;html=1;" parent="1" vertex="1">
          <mxGeometry x="425" y="10" width="100" height="20" as="geometry" />
        </mxCell>
        <mxCell id="PPMV_HGDCqkAZv2vb4dY-31" value="end_date" style="ellipse;whiteSpace=wrap;html=1;" parent="1" vertex="1">
          <mxGeometry x="525" width="90" height="25" as="geometry" />
        </mxCell>
        <mxCell id="PPMV_HGDCqkAZv2vb4dY-32" value="" style="endArrow=classic;html=1;rounded=0;exitX=1;exitY=0;exitDx=0;exitDy=0;entryX=0;entryY=1;entryDx=0;entryDy=0;" parent="1" source="PPMV_HGDCqkAZv2vb4dY-1" target="PPMV_HGDCqkAZv2vb4dY-29" edge="1">
          <mxGeometry width="50" height="50" relative="1" as="geometry">
            <mxPoint x="120" y="390" as="sourcePoint" />
            <mxPoint x="170" y="340" as="targetPoint" />
          </mxGeometry>
        </mxCell>
        <mxCell id="PPMV_HGDCqkAZv2vb4dY-33" value="" style="endArrow=classic;html=1;rounded=0;entryX=0.787;entryY=0.9;entryDx=0;entryDy=0;entryPerimeter=0;" parent="1" source="PPMV_HGDCqkAZv2vb4dY-2" target="PPMV_HGDCqkAZv2vb4dY-34" edge="1">
          <mxGeometry width="50" height="50" relative="1" as="geometry">
            <mxPoint x="498" y="260" as="sourcePoint" />
            <mxPoint x="570" y="409" as="targetPoint" />
          </mxGeometry>
        </mxCell>
        <mxCell id="PPMV_HGDCqkAZv2vb4dY-34" value="subscription_id" style="ellipse;whiteSpace=wrap;html=1;" parent="1" vertex="1">
          <mxGeometry x="540" y="75" width="90" height="25" as="geometry" />
        </mxCell>
        <mxCell id="PPMV_HGDCqkAZv2vb4dY-35" value="" style="endArrow=classic;html=1;rounded=0;entryX=0.5;entryY=1;entryDx=0;entryDy=0;exitX=0.881;exitY=0.018;exitDx=0;exitDy=0;exitPerimeter=0;" parent="1" source="PPMV_HGDCqkAZv2vb4dY-25" target="PPMV_HGDCqkAZv2vb4dY-34" edge="1">
          <mxGeometry width="50" height="50" relative="1" as="geometry">
            <mxPoint x="320" y="450" as="sourcePoint" />
            <mxPoint x="394.5" y="375" as="targetPoint" />
          </mxGeometry>
        </mxCell>
        <mxCell id="PPMV_HGDCqkAZv2vb4dY-36" value="" style="endArrow=classic;html=1;rounded=0;exitX=0.369;exitY=0.018;exitDx=0;exitDy=0;exitPerimeter=0;entryX=0.44;entryY=0.95;entryDx=0;entryDy=0;entryPerimeter=0;" parent="1" source="PPMV_HGDCqkAZv2vb4dY-25" target="PPMV_HGDCqkAZv2vb4dY-30" edge="1">
          <mxGeometry width="50" height="50" relative="1" as="geometry">
            <mxPoint x="140" y="460" as="sourcePoint" />
            <mxPoint x="190" y="390" as="targetPoint" />
          </mxGeometry>
        </mxCell>
        <mxCell id="PPMV_HGDCqkAZv2vb4dY-37" value="" style="endArrow=classic;html=1;rounded=0;exitX=0.175;exitY=-0.033;exitDx=0;exitDy=0;entryX=0.25;entryY=0.994;entryDx=0;entryDy=0;entryPerimeter=0;exitPerimeter=0;" parent="1" source="PPMV_HGDCqkAZv2vb4dY-2" target="PPMV_HGDCqkAZv2vb4dY-4" edge="1">
          <mxGeometry width="50" height="50" relative="1" as="geometry">
            <mxPoint x="360" y="220" as="sourcePoint" />
            <mxPoint x="410" y="170" as="targetPoint" />
          </mxGeometry>
        </mxCell>
        <mxCell id="AaKS2BQyK7AZmn3CQ_Ea-1" value="Resources" style="rounded=1;whiteSpace=wrap;html=1;" vertex="1" parent="1">
          <mxGeometry x="547.5" y="930" width="265" height="40" as="geometry" />
        </mxCell>
        <mxCell id="AaKS2BQyK7AZmn3CQ_Ea-2" value="id" style="ellipse;whiteSpace=wrap;html=1;" vertex="1" parent="1">
          <mxGeometry x="487.5" y="1020" width="120" height="30" as="geometry" />
        </mxCell>
        <mxCell id="AaKS2BQyK7AZmn3CQ_Ea-3" value="title" style="ellipse;whiteSpace=wrap;html=1;" vertex="1" parent="1">
          <mxGeometry x="620" y="1020" width="120" height="30" as="geometry" />
        </mxCell>
        <mxCell id="AaKS2BQyK7AZmn3CQ_Ea-4" value="To be decided" style="ellipse;whiteSpace=wrap;html=1;" vertex="1" parent="1">
          <mxGeometry x="757.5" y="1020" width="120" height="30" as="geometry" />
        </mxCell>
        <mxCell id="AaKS2BQyK7AZmn3CQ_Ea-5" value="" style="endArrow=classic;html=1;rounded=0;entryX=0.5;entryY=0;entryDx=0;entryDy=0;exitX=0.056;exitY=1.036;exitDx=0;exitDy=0;exitPerimeter=0;" edge="1" parent="1" source="AaKS2BQyK7AZmn3CQ_Ea-1" target="AaKS2BQyK7AZmn3CQ_Ea-2">
          <mxGeometry width="50" height="50" relative="1" as="geometry">
            <mxPoint x="647.5" y="940" as="sourcePoint" />
            <mxPoint x="697.5" y="890" as="targetPoint" />
          </mxGeometry>
        </mxCell>
        <mxCell id="AaKS2BQyK7AZmn3CQ_Ea-7" value="" style="endArrow=classic;html=1;rounded=0;exitX=0.5;exitY=1;exitDx=0;exitDy=0;" edge="1" parent="1" source="AaKS2BQyK7AZmn3CQ_Ea-1" target="AaKS2BQyK7AZmn3CQ_Ea-3">
          <mxGeometry width="50" height="50" relative="1" as="geometry">
            <mxPoint x="647.5" y="940" as="sourcePoint" />
            <mxPoint x="697.5" y="890" as="targetPoint" />
          </mxGeometry>
        </mxCell>
        <mxCell id="AaKS2BQyK7AZmn3CQ_Ea-8" value="" style="endArrow=classic;html=1;rounded=0;entryX=0.401;entryY=-0.063;entryDx=0;entryDy=0;entryPerimeter=0;exitX=1;exitY=1;exitDx=0;exitDy=0;" edge="1" parent="1" source="AaKS2BQyK7AZmn3CQ_Ea-1" target="AaKS2BQyK7AZmn3CQ_Ea-4">
          <mxGeometry width="50" height="50" relative="1" as="geometry">
            <mxPoint x="647.5" y="940" as="sourcePoint" />
            <mxPoint x="697.5" y="890" as="targetPoint" />
            <Array as="points">
              <mxPoint x="767.5" y="970" />
            </Array>
          </mxGeometry>
        </mxCell>
        <mxCell id="AaKS2BQyK7AZmn3CQ_Ea-9" value="SubscriptionResources" style="rounded=1;whiteSpace=wrap;html=1;" vertex="1" parent="1">
          <mxGeometry x="627.5" y="530" width="265" height="40" as="geometry" />
        </mxCell>
        <mxCell id="AaKS2BQyK7AZmn3CQ_Ea-10" value="resource_id" style="ellipse;whiteSpace=wrap;html=1;" vertex="1" parent="1">
          <mxGeometry x="620" y="740" width="120" height="30" as="geometry" />
        </mxCell>
        <mxCell id="AaKS2BQyK7AZmn3CQ_Ea-11" value="subscription(id)" style="ellipse;whiteSpace=wrap;html=1;" vertex="1" parent="1">
          <mxGeometry x="740" y="400" width="120" height="30" as="geometry" />
        </mxCell>
        <mxCell id="AaKS2BQyK7AZmn3CQ_Ea-13" value="" style="endArrow=classic;html=1;rounded=0;exitX=0.5;exitY=1;exitDx=0;exitDy=0;" edge="1" parent="1" source="AaKS2BQyK7AZmn3CQ_Ea-9" target="AaKS2BQyK7AZmn3CQ_Ea-10">
          <mxGeometry width="50" height="50" relative="1" as="geometry">
            <mxPoint x="655" y="560" as="sourcePoint" />
            <mxPoint x="705" y="510" as="targetPoint" />
          </mxGeometry>
        </mxCell>
        <mxCell id="AaKS2BQyK7AZmn3CQ_Ea-15" value="" style="endArrow=classic;html=1;rounded=0;exitX=0.538;exitY=-0.047;exitDx=0;exitDy=0;exitPerimeter=0;entryX=0.5;entryY=1;entryDx=0;entryDy=0;" edge="1" parent="1" source="AaKS2BQyK7AZmn3CQ_Ea-9" target="AaKS2BQyK7AZmn3CQ_Ea-11">
          <mxGeometry width="50" height="50" relative="1" as="geometry">
            <mxPoint x="750" y="500" as="sourcePoint" />
            <mxPoint x="800" y="450" as="targetPoint" />
          </mxGeometry>
        </mxCell>
        <mxCell id="AaKS2BQyK7AZmn3CQ_Ea-16" value="" style="endArrow=classic;html=1;rounded=0;entryX=0.338;entryY=0.937;entryDx=0;entryDy=0;entryPerimeter=0;exitX=0.641;exitY=0.036;exitDx=0;exitDy=0;exitPerimeter=0;" edge="1" parent="1" source="AaKS2BQyK7AZmn3CQ_Ea-1" target="AaKS2BQyK7AZmn3CQ_Ea-10">
          <mxGeometry width="50" height="50" relative="1" as="geometry">
            <mxPoint x="502.5" y="920" as="sourcePoint" />
            <mxPoint x="552.5" y="870" as="targetPoint" />
          </mxGeometry>
        </mxCell>
        <mxCell id="AaKS2BQyK7AZmn3CQ_Ea-17" value="" style="endArrow=classic;html=1;rounded=0;exitX=0.5;exitY=0;exitDx=0;exitDy=0;entryX=0.605;entryY=1.052;entryDx=0;entryDy=0;entryPerimeter=0;" edge="1" parent="1" source="AaKS2BQyK7AZmn3CQ_Ea-11" target="PPMV_HGDCqkAZv2vb4dY-2">
          <mxGeometry width="50" height="50" relative="1" as="geometry">
            <mxPoint x="770" y="358" as="sourcePoint" />
            <mxPoint x="782" y="240" as="targetPoint" />
          </mxGeometry>
        </mxCell>
        <mxCell id="AaKS2BQyK7AZmn3CQ_Ea-19" value="UserSubscriptionResourceProgress" style="rounded=1;whiteSpace=wrap;html=1;" vertex="1" parent="1">
          <mxGeometry x="350" y="310" width="210" height="40" as="geometry" />
        </mxCell>
        <mxCell id="AaKS2BQyK7AZmn3CQ_Ea-20" value="resource_id" style="ellipse;whiteSpace=wrap;html=1;" vertex="1" parent="1">
          <mxGeometry x="315" y="440" width="120" height="30" as="geometry" />
        </mxCell>
        <mxCell id="AaKS2BQyK7AZmn3CQ_Ea-21" value="resource_id" style="ellipse;whiteSpace=wrap;html=1;" vertex="1" parent="1">
          <mxGeometry x="450" y="410" width="120" height="50" as="geometry" />
        </mxCell>
        <mxCell id="AaKS2BQyK7AZmn3CQ_Ea-22" value="progress_value" style="ellipse;whiteSpace=wrap;html=1;" vertex="1" parent="1">
          <mxGeometry x="590" y="400" width="120" height="50" as="geometry" />
        </mxCell>
        <mxCell id="AaKS2BQyK7AZmn3CQ_Ea-23" value="" style="endArrow=classic;html=1;rounded=0;exitX=0.037;exitY=-0.075;exitDx=0;exitDy=0;exitPerimeter=0;entryX=0.387;entryY=0.94;entryDx=0;entryDy=0;entryPerimeter=0;" edge="1" parent="1" source="AaKS2BQyK7AZmn3CQ_Ea-1" target="AaKS2BQyK7AZmn3CQ_Ea-20">
          <mxGeometry width="50" height="50" relative="1" as="geometry">
            <mxPoint x="520" y="770" as="sourcePoint" />
            <mxPoint x="370" y="470" as="targetPoint" />
          </mxGeometry>
        </mxCell>
        <mxCell id="AaKS2BQyK7AZmn3CQ_Ea-24" value="" style="endArrow=classic;html=1;rounded=0;exitX=0.387;exitY=0.011;exitDx=0;exitDy=0;exitPerimeter=0;entryX=0.287;entryY=1.008;entryDx=0;entryDy=0;entryPerimeter=0;" edge="1" parent="1" source="AaKS2BQyK7AZmn3CQ_Ea-20" target="AaKS2BQyK7AZmn3CQ_Ea-19">
          <mxGeometry width="50" height="50" relative="1" as="geometry">
            <mxPoint x="360" y="430" as="sourcePoint" />
            <mxPoint x="410" y="360" as="targetPoint" />
          </mxGeometry>
        </mxCell>
        <mxCell id="AaKS2BQyK7AZmn3CQ_Ea-25" value="" style="endArrow=classic;html=1;rounded=0;entryX=0.435;entryY=1.064;entryDx=0;entryDy=0;entryPerimeter=0;" edge="1" parent="1" source="AaKS2BQyK7AZmn3CQ_Ea-21" target="AaKS2BQyK7AZmn3CQ_Ea-19">
          <mxGeometry width="50" height="50" relative="1" as="geometry">
            <mxPoint x="371" y="450" as="sourcePoint" />
            <mxPoint x="420" y="360" as="targetPoint" />
          </mxGeometry>
        </mxCell>
        <mxCell id="AaKS2BQyK7AZmn3CQ_Ea-26" value="" style="endArrow=classic;html=1;rounded=0;entryX=0.843;entryY=1.008;entryDx=0;entryDy=0;entryPerimeter=0;exitX=0;exitY=0;exitDx=0;exitDy=0;" edge="1" parent="1" source="AaKS2BQyK7AZmn3CQ_Ea-22" target="AaKS2BQyK7AZmn3CQ_Ea-19">
          <mxGeometry width="50" height="50" relative="1" as="geometry">
            <mxPoint x="580" y="408" as="sourcePoint" />
            <mxPoint x="530" y="350" as="targetPoint" />
          </mxGeometry>
        </mxCell>
        <mxCell id="AaKS2BQyK7AZmn3CQ_Ea-27" value="user_subsctiption_id" style="ellipse;whiteSpace=wrap;html=1;" vertex="1" parent="1">
          <mxGeometry x="395" y="230" width="120" height="40" as="geometry" />
        </mxCell>
        <mxCell id="AaKS2BQyK7AZmn3CQ_Ea-30" value="" style="endArrow=classic;html=1;rounded=0;exitX=0.599;exitY=0.008;exitDx=0;exitDy=0;exitPerimeter=0;entryX=0.5;entryY=1;entryDx=0;entryDy=0;" edge="1" parent="1" source="AaKS2BQyK7AZmn3CQ_Ea-19" target="AaKS2BQyK7AZmn3CQ_Ea-27">
          <mxGeometry width="50" height="50" relative="1" as="geometry">
            <mxPoint x="340" y="410" as="sourcePoint" />
            <mxPoint x="390" y="360" as="targetPoint" />
            <Array as="points" />
          </mxGeometry>
        </mxCell>
        <mxCell id="AaKS2BQyK7AZmn3CQ_Ea-31" value="" style="endArrow=classic;html=1;rounded=0;entryX=0.5;entryY=0;entryDx=0;entryDy=0;exitX=0.5;exitY=1;exitDx=0;exitDy=0;" edge="1" parent="1" source="PPMV_HGDCqkAZv2vb4dY-25" target="AaKS2BQyK7AZmn3CQ_Ea-27">
          <mxGeometry width="50" height="50" relative="1" as="geometry">
            <mxPoint x="210" y="370" as="sourcePoint" />
            <mxPoint x="260" y="320" as="targetPoint" />
          </mxGeometry>
        </mxCell>
        <mxCell id="AaKS2BQyK7AZmn3CQ_Ea-32" value="access_timestamp" style="ellipse;whiteSpace=wrap;html=1;" vertex="1" parent="1">
          <mxGeometry x="160" y="435" width="120" height="40" as="geometry" />
        </mxCell>
        <mxCell id="AaKS2BQyK7AZmn3CQ_Ea-33" value="" style="endArrow=classic;html=1;rounded=0;exitX=0.781;exitY=0.203;exitDx=0;exitDy=0;exitPerimeter=0;" edge="1" parent="1" source="AaKS2BQyK7AZmn3CQ_Ea-32">
          <mxGeometry width="50" height="50" relative="1" as="geometry">
            <mxPoint x="310" y="400" as="sourcePoint" />
            <mxPoint x="360" y="350" as="targetPoint" />
          </mxGeometry>
        </mxCell>
        <mxCell id="AaKS2BQyK7AZmn3CQ_Ea-34" value="Resource Rating" style="rounded=1;whiteSpace=wrap;html=1;" vertex="1" parent="1">
          <mxGeometry x="82.5" y="970" width="120" height="30" as="geometry" />
        </mxCell>
        <mxCell id="AaKS2BQyK7AZmn3CQ_Ea-35" value="resource_id" style="ellipse;whiteSpace=wrap;html=1;" vertex="1" parent="1">
          <mxGeometry x="187.5" y="880" width="120" height="30" as="geometry" />
        </mxCell>
        <mxCell id="AaKS2BQyK7AZmn3CQ_Ea-36" value="" style="endArrow=classic;html=1;rounded=0;exitX=0;exitY=0.5;exitDx=0;exitDy=0;entryX=1;entryY=1;entryDx=0;entryDy=0;" edge="1" parent="1" source="AaKS2BQyK7AZmn3CQ_Ea-1" target="AaKS2BQyK7AZmn3CQ_Ea-35">
          <mxGeometry width="50" height="50" relative="1" as="geometry">
            <mxPoint x="252.5" y="960" as="sourcePoint" />
            <mxPoint x="302.5" y="910" as="targetPoint" />
          </mxGeometry>
        </mxCell>
        <mxCell id="AaKS2BQyK7AZmn3CQ_Ea-37" value="" style="endArrow=classic;html=1;rounded=0;entryX=0;entryY=1;entryDx=0;entryDy=0;" edge="1" parent="1" target="AaKS2BQyK7AZmn3CQ_Ea-35">
          <mxGeometry width="50" height="50" relative="1" as="geometry">
            <mxPoint x="142.5" y="970" as="sourcePoint" />
            <mxPoint x="192.5" y="920" as="targetPoint" />
          </mxGeometry>
        </mxCell>
        <mxCell id="AaKS2BQyK7AZmn3CQ_Ea-38" value="liked" style="ellipse;whiteSpace=wrap;html=1;" vertex="1" parent="1">
          <mxGeometry x="2.5" y="1070" width="120" height="30" as="geometry" />
        </mxCell>
        <mxCell id="AaKS2BQyK7AZmn3CQ_Ea-39" value="feedback" style="ellipse;whiteSpace=wrap;html=1;" vertex="1" parent="1">
          <mxGeometry x="115" y="1130" width="120" height="40" as="geometry" />
        </mxCell>
        <mxCell id="AaKS2BQyK7AZmn3CQ_Ea-40" value="rating" style="ellipse;whiteSpace=wrap;html=1;" vertex="1" parent="1">
          <mxGeometry x="182.5" y="1050" width="120" height="40" as="geometry" />
        </mxCell>
        <mxCell id="AaKS2BQyK7AZmn3CQ_Ea-41" value="" style="endArrow=classic;html=1;rounded=0;exitX=0.299;exitY=-0.019;exitDx=0;exitDy=0;entryX=0.75;entryY=1;entryDx=0;entryDy=0;exitPerimeter=0;" edge="1" parent="1" source="AaKS2BQyK7AZmn3CQ_Ea-40" target="AaKS2BQyK7AZmn3CQ_Ea-34">
          <mxGeometry width="50" height="50" relative="1" as="geometry">
            <mxPoint x="142.5" y="1050" as="sourcePoint" />
            <mxPoint x="192.5" y="1000" as="targetPoint" />
          </mxGeometry>
        </mxCell>
        <mxCell id="AaKS2BQyK7AZmn3CQ_Ea-42" value="" style="endArrow=classic;html=1;rounded=0;exitX=0.5;exitY=0;exitDx=0;exitDy=0;entryX=0.095;entryY=0.863;entryDx=0;entryDy=0;entryPerimeter=0;" edge="1" parent="1" source="AaKS2BQyK7AZmn3CQ_Ea-38" target="AaKS2BQyK7AZmn3CQ_Ea-34">
          <mxGeometry width="50" height="50" relative="1" as="geometry">
            <mxPoint x="82.5" y="1050" as="sourcePoint" />
            <mxPoint x="92.5" y="1010" as="targetPoint" />
          </mxGeometry>
        </mxCell>
        <mxCell id="AaKS2BQyK7AZmn3CQ_Ea-43" value="" style="endArrow=classic;html=1;rounded=0;entryX=0.392;entryY=1.048;entryDx=0;entryDy=0;entryPerimeter=0;exitX=0.353;exitY=0;exitDx=0;exitDy=0;exitPerimeter=0;" edge="1" parent="1" source="AaKS2BQyK7AZmn3CQ_Ea-39" target="AaKS2BQyK7AZmn3CQ_Ea-34">
          <mxGeometry width="50" height="50" relative="1" as="geometry">
            <mxPoint x="157.35053117720713" y="1110.073794555279" as="sourcePoint" />
            <mxPoint x="152.5" y="1000" as="targetPoint" />
          </mxGeometry>
        </mxCell>
        <mxCell id="AaKS2BQyK7AZmn3CQ_Ea-44" value="StorageProviders" style="rounded=1;whiteSpace=wrap;html=1;" vertex="1" parent="1">
          <mxGeometry x="1410" y="30" width="120" height="60" as="geometry" />
        </mxCell>
        <mxCell id="AaKS2BQyK7AZmn3CQ_Ea-45" value="name" style="ellipse;whiteSpace=wrap;html=1;" vertex="1" parent="1">
          <mxGeometry x="1230" y="-210" width="120" height="40" as="geometry" />
        </mxCell>
        <mxCell id="AaKS2BQyK7AZmn3CQ_Ea-46" value="type" style="ellipse;whiteSpace=wrap;html=1;" vertex="1" parent="1">
          <mxGeometry x="1400" y="-230" width="120" height="50" as="geometry" />
        </mxCell>
        <mxCell id="AaKS2BQyK7AZmn3CQ_Ea-47" value="endpoint" style="ellipse;whiteSpace=wrap;html=1;" vertex="1" parent="1">
          <mxGeometry x="1560" y="-220" width="120" height="40" as="geometry" />
        </mxCell>
        <mxCell id="AaKS2BQyK7AZmn3CQ_Ea-48" value="configuration" style="ellipse;whiteSpace=wrap;html=1;" vertex="1" parent="1">
          <mxGeometry x="1740" y="-225" width="120" height="40" as="geometry" />
        </mxCell>
        <mxCell id="AaKS2BQyK7AZmn3CQ_Ea-49" value="" style="endArrow=classic;html=1;rounded=0;entryX=0.5;entryY=1;entryDx=0;entryDy=0;" edge="1" parent="1" target="AaKS2BQyK7AZmn3CQ_Ea-45">
          <mxGeometry width="50" height="50" relative="1" as="geometry">
            <mxPoint x="1420" y="30" as="sourcePoint" />
            <mxPoint x="1340" y="90" as="targetPoint" />
          </mxGeometry>
        </mxCell>
        <mxCell id="AaKS2BQyK7AZmn3CQ_Ea-50" value="" style="endArrow=classic;html=1;rounded=0;exitX=0.25;exitY=0;exitDx=0;exitDy=0;" edge="1" parent="1" source="AaKS2BQyK7AZmn3CQ_Ea-44">
          <mxGeometry width="50" height="50" relative="1" as="geometry">
            <mxPoint x="1390" y="150" as="sourcePoint" />
            <mxPoint x="1446" y="-180" as="targetPoint" />
          </mxGeometry>
        </mxCell>
        <mxCell id="AaKS2BQyK7AZmn3CQ_Ea-51" value="" style="endArrow=classic;html=1;rounded=0;exitX=0.645;exitY=-0.024;exitDx=0;exitDy=0;exitPerimeter=0;entryX=0.288;entryY=0.964;entryDx=0;entryDy=0;entryPerimeter=0;" edge="1" parent="1" source="AaKS2BQyK7AZmn3CQ_Ea-44" target="AaKS2BQyK7AZmn3CQ_Ea-47">
          <mxGeometry width="50" height="50" relative="1" as="geometry">
            <mxPoint x="1494" y="120" as="sourcePoint" />
            <mxPoint x="1580" y="-190" as="targetPoint" />
          </mxGeometry>
        </mxCell>
        <mxCell id="AaKS2BQyK7AZmn3CQ_Ea-52" value="" style="endArrow=classic;html=1;rounded=0;entryX=0.324;entryY=0.946;entryDx=0;entryDy=0;entryPerimeter=0;exitX=0.895;exitY=1.048;exitDx=0;exitDy=0;exitPerimeter=0;" edge="1" parent="1" target="AaKS2BQyK7AZmn3CQ_Ea-48">
          <mxGeometry width="50" height="50" relative="1" as="geometry">
            <mxPoint x="1520" y="30.000000000000107" as="sourcePoint" />
            <mxPoint x="1782.92" y="-283.5999999999998" as="targetPoint" />
          </mxGeometry>
        </mxCell>
        <mxCell id="AaKS2BQyK7AZmn3CQ_Ea-53" value="StorageFormat" style="rounded=1;whiteSpace=wrap;html=1;" vertex="1" parent="1">
          <mxGeometry x="1090" y="630" width="120" height="60" as="geometry" />
        </mxCell>
        <mxCell id="AaKS2BQyK7AZmn3CQ_Ea-54" value="name" style="ellipse;whiteSpace=wrap;html=1;" vertex="1" parent="1">
          <mxGeometry x="960" y="440" width="120" height="80" as="geometry" />
        </mxCell>
        <mxCell id="AaKS2BQyK7AZmn3CQ_Ea-55" value="mime_type" style="ellipse;whiteSpace=wrap;html=1;" vertex="1" parent="1">
          <mxGeometry x="1140" y="415" width="120" height="80" as="geometry" />
        </mxCell>
        <mxCell id="AaKS2BQyK7AZmn3CQ_Ea-56" value="category" style="ellipse;whiteSpace=wrap;html=1;" vertex="1" parent="1">
          <mxGeometry x="1370" y="355" width="120" height="80" as="geometry" />
        </mxCell>
        <mxCell id="AaKS2BQyK7AZmn3CQ_Ea-57" value="provider_id" style="ellipse;whiteSpace=wrap;html=1;" vertex="1" parent="1">
          <mxGeometry x="1390" y="460" width="120" height="80" as="geometry" />
        </mxCell>
        <mxCell id="AaKS2BQyK7AZmn3CQ_Ea-58" value="tracking_unit" style="ellipse;whiteSpace=wrap;html=1;" vertex="1" parent="1">
          <mxGeometry x="1410" y="550" width="120" height="80" as="geometry" />
        </mxCell>
        <mxCell id="AaKS2BQyK7AZmn3CQ_Ea-59" value="" style="endArrow=classic;html=1;rounded=0;exitX=0;exitY=0.25;exitDx=0;exitDy=0;entryX=0.5;entryY=1;entryDx=0;entryDy=0;" edge="1" parent="1" source="AaKS2BQyK7AZmn3CQ_Ea-53" target="AaKS2BQyK7AZmn3CQ_Ea-54">
          <mxGeometry width="50" height="50" relative="1" as="geometry">
            <mxPoint x="1150" y="540" as="sourcePoint" />
            <mxPoint x="1200" y="490" as="targetPoint" />
          </mxGeometry>
        </mxCell>
        <mxCell id="AaKS2BQyK7AZmn3CQ_Ea-60" value="" style="endArrow=classic;html=1;rounded=0;entryX=0.5;entryY=1;entryDx=0;entryDy=0;exitX=0.25;exitY=0;exitDx=0;exitDy=0;" edge="1" parent="1" source="AaKS2BQyK7AZmn3CQ_Ea-53" target="AaKS2BQyK7AZmn3CQ_Ea-55">
          <mxGeometry width="50" height="50" relative="1" as="geometry">
            <mxPoint x="1440" y="540" as="sourcePoint" />
            <mxPoint x="1450" y="500" as="targetPoint" />
          </mxGeometry>
        </mxCell>
        <mxCell id="AaKS2BQyK7AZmn3CQ_Ea-61" value="" style="endArrow=classic;html=1;rounded=0;entryX=0;entryY=1;entryDx=0;entryDy=0;exitX=0.5;exitY=0;exitDx=0;exitDy=0;" edge="1" parent="1" source="AaKS2BQyK7AZmn3CQ_Ea-53" target="AaKS2BQyK7AZmn3CQ_Ea-56">
          <mxGeometry width="50" height="50" relative="1" as="geometry">
            <mxPoint x="1480" y="550" as="sourcePoint" />
            <mxPoint x="1550" y="500" as="targetPoint" />
          </mxGeometry>
        </mxCell>
        <mxCell id="AaKS2BQyK7AZmn3CQ_Ea-62" value="" style="endArrow=classic;html=1;rounded=0;exitX=1;exitY=0.25;exitDx=0;exitDy=0;entryX=0;entryY=1;entryDx=0;entryDy=0;" edge="1" parent="1" source="AaKS2BQyK7AZmn3CQ_Ea-53" target="AaKS2BQyK7AZmn3CQ_Ea-57">
          <mxGeometry width="50" height="50" relative="1" as="geometry">
            <mxPoint x="1730" y="520" as="sourcePoint" />
            <mxPoint x="1780" y="470" as="targetPoint" />
          </mxGeometry>
        </mxCell>
        <mxCell id="AaKS2BQyK7AZmn3CQ_Ea-63" value="" style="endArrow=classic;html=1;rounded=0;entryX=0.014;entryY=0.625;entryDx=0;entryDy=0;entryPerimeter=0;" edge="1" parent="1" source="AaKS2BQyK7AZmn3CQ_Ea-53" target="AaKS2BQyK7AZmn3CQ_Ea-58">
          <mxGeometry width="50" height="50" relative="1" as="geometry">
            <mxPoint x="1500" y="620" as="sourcePoint" />
            <mxPoint x="1550" y="570" as="targetPoint" />
          </mxGeometry>
        </mxCell>
        <mxCell id="AaKS2BQyK7AZmn3CQ_Ea-64" value="" style="endArrow=classic;html=1;rounded=0;exitX=0.841;exitY=-0.036;exitDx=0;exitDy=0;exitPerimeter=0;" edge="1" parent="1" source="AaKS2BQyK7AZmn3CQ_Ea-1">
          <mxGeometry width="50" height="50" relative="1" as="geometry">
            <mxPoint x="820" y="910" as="sourcePoint" />
            <mxPoint x="870" y="860" as="targetPoint" />
          </mxGeometry>
        </mxCell>
        <mxCell id="AaKS2BQyK7AZmn3CQ_Ea-65" value="format_id" style="ellipse;whiteSpace=wrap;html=1;" vertex="1" parent="1">
          <mxGeometry x="840" y="790" width="120" height="80" as="geometry" />
        </mxCell>
        <mxCell id="AaKS2BQyK7AZmn3CQ_Ea-66" value="" style="endArrow=classic;html=1;rounded=0;entryX=0.5;entryY=0;entryDx=0;entryDy=0;exitX=0.407;exitY=1.024;exitDx=0;exitDy=0;exitPerimeter=0;" edge="1" parent="1" source="AaKS2BQyK7AZmn3CQ_Ea-53" target="AaKS2BQyK7AZmn3CQ_Ea-65">
          <mxGeometry width="50" height="50" relative="1" as="geometry">
            <mxPoint x="1130" y="680" as="sourcePoint" />
            <mxPoint x="1180" y="630" as="targetPoint" />
          </mxGeometry>
        </mxCell>
        <mxCell id="AaKS2BQyK7AZmn3CQ_Ea-67" value="storage_id" style="ellipse;whiteSpace=wrap;html=1;" vertex="1" parent="1">
          <mxGeometry x="1400" y="175" width="120" height="80" as="geometry" />
        </mxCell>
        <mxCell id="AaKS2BQyK7AZmn3CQ_Ea-68" value="" style="endArrow=classic;html=1;rounded=0;exitX=0.365;exitY=0.036;exitDx=0;exitDy=0;exitPerimeter=0;entryX=0.5;entryY=1;entryDx=0;entryDy=0;" edge="1" parent="1" source="AaKS2BQyK7AZmn3CQ_Ea-53" target="AaKS2BQyK7AZmn3CQ_Ea-67">
          <mxGeometry width="50" height="50" relative="1" as="geometry">
            <mxPoint x="1290" y="310" as="sourcePoint" />
            <mxPoint x="1360" y="240" as="targetPoint" />
          </mxGeometry>
        </mxCell>
        <mxCell id="AaKS2BQyK7AZmn3CQ_Ea-69" value="" style="endArrow=classic;html=1;rounded=0;entryX=0.389;entryY=0.036;entryDx=0;entryDy=0;entryPerimeter=0;exitX=0.5;exitY=1;exitDx=0;exitDy=0;" edge="1" parent="1" source="AaKS2BQyK7AZmn3CQ_Ea-44" target="AaKS2BQyK7AZmn3CQ_Ea-67">
          <mxGeometry width="50" height="50" relative="1" as="geometry">
            <mxPoint x="1090" y="220" as="sourcePoint" />
            <mxPoint x="1140" y="170" as="targetPoint" />
          </mxGeometry>
        </mxCell>
      </root>
    </mxGraphModel>
  </diagram>
</mxfile>
